<svg xmlns="http://www.w3.org/2000/svg" viewBox="0 0 240 40" fill="none">
  <!-- Leaf icon -->
  <g transform="translate(0, 4)">
    <path d="M16 2C8 6 3 14 2 22c0 0 4-2 8-2 2 0 4 .5 6 2 2-1.5 4-2 6-2 4 0 8 2 8 2C29 14 24 6 16 2z" fill="#50e8c0" opacity="0.9"/>
    <path d="M16 8v16" stroke="#12181a" stroke-width="1.5" stroke-linecap="round"/>
    <path d="M16 12c-3 2-5 4-6 7" stroke="#12181a" stroke-width="1" stroke-linecap="round" opacity="0.6"/>
    <path d="M16 14c3 2 5 4 6 6" stroke="#12181a" stroke-width="1" stroke-linecap="round" opacity="0.6"/>
  </g>
  <!-- Text -->
  <text x="40" y="28" font-family="Inter, system-ui, sans-serif" font-size="22" font-weight="350" fill="#bccac4" letter-spacing="-0.5">Nored Farms</text>
</svg>
